REM DIRINDEX 1\2,1\3,1\4,1\5\6,1\5\7,1\8
REM DIRNAME folder01,folder02,folder03,folder04,folder05,folder06,folder07,folder08
TITLE ""
FILE "086 Åy086ÅzUnit5 (0973 arrogant_0984 complicate).mp3" MP3
  TRACK 01 AUDIO
    TITLE "0:"
    INDEX 01 00:00:00
  TRACK 02 AUDIO
    TITLE "2:cjc115_3360"
    INDEX 01 00:00:07
  TRACK 03 AUDIO
    TITLE "0:"
    INDEX 01 00:01:26
  TRACK 04 AUDIO
    TITLE "3:cjc115_3361"
    INDEX 01 00:01:36
  TRACK 05 AUDIO
    TITLE "0:"
    INDEX 01 00:03:63
  TRACK 06 AUDIO
    TITLE "4:cjc115_3362"
    INDEX 01 00:03:70
  TRACK 07 AUDIO
    TITLE "0:"
    INDEX 01 00:08:01
  TRACK 08 AUDIO
    TITLE "2:cjc115_3363"
    INDEX 01 00:09:08
  TRACK 09 AUDIO
    TITLE "0:"
    INDEX 01 00:10:23
  TRACK 10 AUDIO
    TITLE "3:cjc115_3364"
    INDEX 01 00:10:31
  TRACK 11 AUDIO
    TITLE "0:"
    INDEX 01 00:13:04
  TRACK 12 AUDIO
    TITLE "4:cjc115_3365"
    INDEX 01 00:13:12
  TRACK 13 AUDIO
    TITLE "0:"
    INDEX 01 00:17:47
  TRACK 14 AUDIO
    TITLE "2:cjc115_3366"
    INDEX 01 00:18:56
  TRACK 15 AUDIO
    TITLE "0:"
    INDEX 01 00:20:08
  TRACK 16 AUDIO
    TITLE "3:cjc115_3367"
    INDEX 01 00:20:16
  TRACK 17 AUDIO
    TITLE "0:"
    INDEX 01 00:22:58
  TRACK 18 AUDIO
    TITLE "4:cjc115_3368"
    INDEX 01 00:22:62
  TRACK 19 AUDIO
    TITLE "0:"
    INDEX 01 00:26:28
  TRACK 20 AUDIO
    TITLE "2:cjc115_3369"
    INDEX 01 00:27:38
  TRACK 21 AUDIO
    TITLE "0:"
    INDEX 01 00:28:66
  TRACK 22 AUDIO
    TITLE "3:cjc115_3370"
    INDEX 01 00:29:01
  TRACK 23 AUDIO
    TITLE "0:"
    INDEX 01 00:30:42
  TRACK 24 AUDIO
    TITLE "4:cjc115_3371"
    INDEX 01 00:30:48
  TRACK 25 AUDIO
    TITLE "0:"
    INDEX 01 00:35:15
  TRACK 26 AUDIO
    TITLE "2:cjc115_3372"
    INDEX 01 00:36:23
  TRACK 27 AUDIO
    TITLE "0:"
    INDEX 01 00:37:48
  TRACK 28 AUDIO
    TITLE "3:cjc115_3373"
    INDEX 01 00:37:56
  TRACK 29 AUDIO
    TITLE "0:"
    INDEX 01 00:39:64
  TRACK 30 AUDIO
    TITLE "4:cjc115_3374"
    INDEX 01 00:39:70
  TRACK 31 AUDIO
    TITLE "0:"
    INDEX 01 00:44:50
  TRACK 32 AUDIO
    TITLE "2:cjc115_3375"
    INDEX 01 00:45:61
  TRACK 33 AUDIO
    TITLE "0:"
    INDEX 01 00:47:07
  TRACK 34 AUDIO
    TITLE "3:cjc115_3376"
    INDEX 01 00:47:15
  TRACK 35 AUDIO
    TITLE "0:"
    INDEX 01 00:50:33
  TRACK 36 AUDIO
    TITLE "4:cjc115_3377"
    INDEX 01 00:50:42
  TRACK 37 AUDIO
    TITLE "0:"
    INDEX 01 00:54:62
  TRACK 38 AUDIO
    TITLE "2:cjc115_3378"
    INDEX 01 00:55:65
  TRACK 39 AUDIO
    TITLE "0:"
    INDEX 01 00:56:74
  TRACK 40 AUDIO
    TITLE "3:cjc115_3379"
    INDEX 01 00:57:05
  TRACK 41 AUDIO
    TITLE "0:"
    INDEX 01 00:59:45
  TRACK 42 AUDIO
    TITLE "4:cjc115_3380"
    INDEX 01 00:59:55
  TRACK 43 AUDIO
    TITLE "0:"
    INDEX 01 01:04:39
  TRACK 44 AUDIO
    TITLE "2:cjc115_3381"
    INDEX 01 01:05:50
  TRACK 45 AUDIO
    TITLE "0:"
    INDEX 01 01:06:69
  TRACK 46 AUDIO
    TITLE "3:cjc115_3382"
    INDEX 01 01:07:02
  TRACK 47 AUDIO
    TITLE "0:"
    INDEX 01 01:08:40
  TRACK 48 AUDIO
    TITLE "4:cjc115_3383"
    INDEX 01 01:08:46
  TRACK 49 AUDIO
    TITLE "0:"
    INDEX 01 01:12:54
  TRACK 50 AUDIO
    TITLE "2:cjc115_3384"
    INDEX 01 01:13:65
  TRACK 51 AUDIO
    TITLE "0:"
    INDEX 01 01:15:05
  TRACK 52 AUDIO
    TITLE "3:cjc115_3385"
    INDEX 01 01:15:09
  TRACK 53 AUDIO
    TITLE "0:"
    INDEX 01 01:17:26
  TRACK 54 AUDIO
    TITLE "4:cjc115_3386"
    INDEX 01 01:17:37
  TRACK 55 AUDIO
    TITLE "0:"
    INDEX 01 01:22:09
  TRACK 56 AUDIO
    TITLE "2:cjc115_3387"
    INDEX 01 01:23:18
  TRACK 57 AUDIO
    TITLE "0:"
    INDEX 01 01:24:32
  TRACK 58 AUDIO
    TITLE "3:cjc115_3388"
    INDEX 01 01:24:39
  TRACK 59 AUDIO
    TITLE "0:"
    INDEX 01 01:27:06
  TRACK 60 AUDIO
    TITLE "4:cjc115_3389"
    INDEX 01 01:27:14
  TRACK 61 AUDIO
    TITLE "0:"
    INDEX 01 01:30:28
  TRACK 62 AUDIO
    TITLE "2:cjc115_3390"
    INDEX 01 01:31:36
  TRACK 63 AUDIO
    TITLE "0:"
    INDEX 01 01:32:45
  TRACK 64 AUDIO
    TITLE "3:cjc115_3391"
    INDEX 01 01:32:55
  TRACK 65 AUDIO
    TITLE "0:"
    INDEX 01 01:35:06
  TRACK 66 AUDIO
    TITLE "4:cjc115_3392"
    INDEX 01 01:35:16
  TRACK 67 AUDIO
    TITLE "0:"
    INDEX 01 01:38:36
  TRACK 68 AUDIO
    TITLE "2:cjc115_3393"
    INDEX 01 01:39:47
  TRACK 69 AUDIO
    TITLE "0:"
    INDEX 01 01:41:01
  TRACK 70 AUDIO
    TITLE "3:cjc115_3394"
    INDEX 01 01:41:12
  TRACK 71 AUDIO
    TITLE "0:"
    INDEX 01 01:42:67
  TRACK 72 AUDIO
    TITLE "4:cjc115_3395"
    INDEX 01 01:42:73
  TRACK 73 AUDIO
    TITLE "0:"
    INDEX 01 01:46:57
